<svg width="138" height="36" viewBox="0 0 138 36" fill="none" xmlns="http://www.w3.org/2000/svg">
<path d="M22.3906 1.20312C22.2969 2.67188 22.2109 4.125 22.1328 5.5625C22.0547 7 21.9531 8.45312 21.8281 9.92188L11.8906 10.4375L11.6562 13.3906H18.6406L18.125 20.6562L11.0938 20.8906L10.8594 24.3125H16.6719H20.7969C20.7031 26.0312 20.6016 27.7422 20.4922 29.4453C20.3984 31.1328 20.3125 32.8281 20.2344 34.5312L0.03125 35L0.78125 1.20312H22.3906ZM52.2969 23.1406C52.2969 24.9062 52.2734 26.6562 52.2266 28.3906C52.1953 30.1094 52.1406 31.8438 52.0625 33.5938L38.5625 33.3594C39.0312 30.5938 39.4375 27.8359 39.7812 25.0859C40.125 22.3203 40.2969 19.5312 40.2969 16.7188C40.2969 16.5156 40.2891 16.1875 40.2734 15.7344C40.2578 15.2812 40.2266 14.7734 40.1797 14.2109C40.1328 13.6328 40.0625 13.0469 39.9688 12.4531C39.8906 11.8438 39.7734 11.2891 39.6172 10.7891C39.4766 10.2891 39.2969 9.88281 39.0781 9.57031C38.875 9.24219 38.625 9.07812 38.3281 9.07812C37.7969 9.07812 37.3438 9.23438 36.9688 9.54688C36.6094 9.85937 36.3047 10.2656 36.0547 10.7656C35.8203 11.25 35.6328 11.7969 35.4922 12.4062C35.3516 13.0156 35.2422 13.625 35.1641 14.2344C35.1016 14.8438 35.0547 15.4219 35.0234 15.9688C35.0078 16.5 35 16.9375 35 17.2812C34.9219 20.0469 34.8594 22.7969 34.8125 25.5312C34.7656 28.25 34.7031 31 34.625 33.7812L22.6719 34.2969C22.9844 28.7812 23.2812 23.2969 23.5625 17.8438C23.8594 12.3906 24.0938 6.90625 24.2656 1.39062L35.3281 0.828125L35.2344 4.57812C35.6719 4.04687 36.1406 3.54688 36.6406 3.07812C37.1562 2.60938 37.7031 2.21094 38.2812 1.88281C38.8594 1.53906 39.4688 1.27344 40.1094 1.08594C40.7656 0.882812 41.4531 0.78125 42.1719 0.78125C43.5 0.78125 44.6641 1 45.6641 1.4375C46.6641 1.875 47.5234 2.46875 48.2422 3.21875C48.9609 3.96875 49.5625 4.85938 50.0469 5.89062C50.5312 6.90625 50.9219 7.99219 51.2188 9.14844C51.5156 10.3047 51.7422 11.5156 51.8984 12.7812C52.0547 14.0312 52.1562 15.2656 52.2031 16.4844C52.2656 17.7031 52.2969 18.8828 52.2969 20.0234C52.2969 21.1641 52.2969 22.2031 52.2969 23.1406ZM81.0781 16.3906C81.0781 18.5781 80.7969 20.5391 80.2344 22.2734C79.6719 24.0078 78.8828 25.5469 77.8672 26.8906C76.8672 28.2188 75.6719 29.3516 74.2812 30.2891C72.8906 31.2266 71.3672 32 69.7109 32.6094C68.0547 33.2031 66.2891 33.6406 64.4141 33.9219C62.5547 34.2031 60.6406 34.3438 58.6719 34.3438C57.9375 34.3438 57.2188 34.3281 56.5156 34.2969C55.8125 34.25 55.0938 34.1875 54.3594 34.1094L55.0156 3.59375C56.7344 3.04688 58.5 2.66406 60.3125 2.44531C62.1406 2.21094 63.9531 2.09375 65.75 2.09375C67.9844 2.09375 70.0391 2.40625 71.9141 3.03125C73.7891 3.65625 75.4062 4.57812 76.7656 5.79688C78.125 7 79.1797 8.49219 79.9297 10.2734C80.6953 12.0391 81.0781 14.0781 81.0781 16.3906ZM65.1406 25.3906C66.0781 25.25 66.9297 24.9688 67.6953 24.5469C68.4766 24.1094 69.1484 23.5781 69.7109 22.9531C70.2734 22.3125 70.7031 21.5938 71 20.7969C71.3125 19.9844 71.4688 19.125 71.4688 18.2188C71.4688 17.3281 71.375 16.5 71.1875 15.7344C71 14.9531 70.6953 14.2812 70.2734 13.7188C69.8516 13.1406 69.2969 12.6875 68.6094 12.3594C67.9219 12.0156 67.0781 11.8281 66.0781 11.7969L65.1406 25.3906ZM108.711 16.0625C108.711 17.4219 108.617 18.7812 108.43 20.1406C105.758 20.3125 103.102 20.5938 100.461 20.9844C97.8203 21.3594 95.1797 21.7344 92.5391 22.1094C92.9453 23.2344 93.5781 24.1328 94.4375 24.8047C95.3125 25.4766 96.3516 25.8125 97.5547 25.8125C98.1797 25.8125 98.8594 25.6953 99.5938 25.4609C100.344 25.2266 101.086 24.9375 101.82 24.5938C102.555 24.2344 103.258 23.8516 103.93 23.4453C104.602 23.0391 105.18 22.6719 105.664 22.3438L104.539 32.9844C103.93 33.4531 103.266 33.8516 102.547 34.1797C101.844 34.5078 101.109 34.7734 100.344 34.9766C99.5781 35.1797 98.8047 35.3281 98.0234 35.4219C97.2422 35.5156 96.4766 35.5625 95.7266 35.5625C94.1797 35.5625 92.7656 35.3516 91.4844 34.9297C90.2031 34.5078 89.0391 33.9219 87.9922 33.1719C86.9609 32.4062 86.0547 31.5078 85.2734 30.4766C84.4922 29.4453 83.8438 28.3203 83.3281 27.1016C82.8125 25.8828 82.4219 24.5938 82.1562 23.2344C81.8906 21.875 81.7578 20.5 81.7578 19.1094C81.7578 17.6562 81.8906 16.2031 82.1562 14.75C82.4219 13.2969 82.8203 11.8984 83.3516 10.5547C83.8984 9.21094 84.5781 7.96875 85.3906 6.82812C86.2188 5.67188 87.1797 4.66406 88.2734 3.80469C89.3672 2.94531 90.6016 2.27344 91.9766 1.78906C93.3672 1.30469 94.8984 1.0625 96.5703 1.0625C97.9609 1.0625 99.2266 1.25781 100.367 1.64844C101.523 2.02344 102.547 2.55469 103.438 3.24219C104.344 3.91406 105.125 4.71875 105.781 5.65625C106.453 6.59375 107 7.625 107.422 8.75C107.859 9.85937 108.18 11.0391 108.383 12.2891C108.602 13.5234 108.711 14.7812 108.711 16.0625ZM99.3359 14.8438C99.3359 14.4062 99.2891 13.9609 99.1953 13.5078C99.1016 13.0391 98.9453 12.6172 98.7266 12.2422C98.5234 11.8672 98.25 11.5625 97.9062 11.3281C97.5625 11.0781 97.1328 10.9531 96.6172 10.9531C95.9922 10.9531 95.4375 11.125 94.9531 11.4688C94.4844 11.7969 94.0781 12.2188 93.7344 12.7344C93.3906 13.2344 93.1094 13.7812 92.8906 14.375C92.6719 14.9688 92.5078 15.5156 92.3984 16.0156L99.3359 15.3594V14.8438ZM137.727 12.4062C137.727 13.625 137.617 14.7344 137.398 15.7344C137.195 16.7188 136.867 17.625 136.414 18.4531C135.961 19.2812 135.375 20.0469 134.656 20.75C133.938 21.4531 133.07 22.125 132.055 22.7656L137.633 32.7031L127.086 34.7656L123.477 24.7812L120.57 24.875L120.148 34.625H110.07C110.148 31.0625 110.219 27.5156 110.281 23.9844C110.359 20.4531 110.445 16.9062 110.539 13.3438C110.57 11.5469 110.602 9.76562 110.633 8C110.664 6.23438 110.727 4.45313 110.82 2.65625C111.914 2.25 112.992 1.91406 114.055 1.64844C115.117 1.38281 116.18 1.17969 117.242 1.03906C118.32 0.882812 119.406 0.78125 120.5 0.734375C121.609 0.671875 122.742 0.640625 123.898 0.640625C125.68 0.640625 127.398 0.890625 129.055 1.39062C130.727 1.875 132.203 2.60938 133.484 3.59375C134.766 4.57812 135.789 5.80469 136.555 7.27344C137.336 8.74219 137.727 10.4531 137.727 12.4062ZM127.227 13.1562C127.227 12.5 127.133 11.8984 126.945 11.3516C126.773 10.8047 126.508 10.3359 126.148 9.94531C125.805 9.53906 125.367 9.22656 124.836 9.00781C124.32 8.77344 123.711 8.65625 123.008 8.65625C122.695 8.65625 122.391 8.67969 122.094 8.72656C121.797 8.75781 121.508 8.8125 121.227 8.89062L120.852 17.6094H121.414C122.086 17.6094 122.766 17.5234 123.453 17.3516C124.156 17.1797 124.781 16.9141 125.328 16.5547C125.891 16.1953 126.344 15.7344 126.688 15.1719C127.047 14.6094 127.227 13.9375 127.227 13.1562Z" fill="white"/>
</svg>
