<svg width="238" height="36" viewBox="0 0 238 36" fill="none" xmlns="http://www.w3.org/2000/svg">
<path d="M29.5312 29.75C28.7969 30.6719 27.8906 31.4766 26.8125 32.1641C25.7344 32.8516 24.5781 33.4219 23.3438 33.875C22.1094 34.3281 20.8438 34.6719 19.5469 34.9062C18.25 35.125 17.0156 35.2344 15.8438 35.2344C13.5781 35.2344 11.4922 34.8516 9.58594 34.0859C7.67969 33.3203 6.03125 32.2578 4.64062 30.8984C3.26562 29.5234 2.1875 27.8906 1.40625 26C0.625 24.1094 0.234375 22.0469 0.234375 19.8125C0.234375 18.1094 0.429688 16.4531 0.820312 14.8438C1.21094 13.2344 1.76562 11.7266 2.48438 10.3203C3.21875 8.91406 4.10938 7.625 5.15625 6.45312C6.20312 5.28125 7.39062 4.27344 8.71875 3.42969C10.0469 2.58594 11.5 1.9375 13.0781 1.48438C14.6719 1.01562 16.3594 0.78125 18.1406 0.78125C18.8125 0.78125 19.5312 0.8125 20.2969 0.875C21.0625 0.921875 21.8203 1.01562 22.5703 1.15625C23.3359 1.28125 24.0781 1.46094 24.7969 1.69531C25.5156 1.92969 26.1719 2.21875 26.7656 2.5625L26.1094 11.5156C25.2344 11.1875 24.3281 10.9688 23.3906 10.8594C22.4688 10.7344 21.5625 10.6719 20.6719 10.6719C19.4219 10.6719 18.25 10.8437 17.1562 11.1875C16.0781 11.5156 15.1328 12.0078 14.3203 12.6641C13.5234 13.3203 12.8906 14.1406 12.4219 15.125C11.9531 16.1094 11.7188 17.25 11.7188 18.5469C11.7188 19.3594 11.8281 20.1484 12.0469 20.9141C12.2656 21.6641 12.5938 22.3359 13.0312 22.9297C13.4844 23.5078 14.0391 23.9766 14.6953 24.3359C15.3672 24.6953 16.1406 24.875 17.0156 24.875C17.6094 24.875 18.2188 24.7969 18.8438 24.6406C19.4844 24.4844 20.0312 24.2188 20.4844 23.8438L20.5781 22.0156L14.9531 21.9219L15.2344 14.8906C17.5625 14.8125 19.8906 14.75 22.2188 14.7031C24.5469 14.6406 26.8906 14.5625 29.25 14.4688L29.5312 29.75ZM60.8906 32.9844L49.2656 34.4844L47.8594 29.1875H42.5156L41.3438 34.4844L29.3906 33.3125L38.7188 2.09375L51.75 1.4375L60.8906 32.9844ZM47.0156 22.0156L45.2344 13.8594L43.5 22.0156H47.0156ZM88.8516 12.4062C88.8516 13.625 88.7422 14.7344 88.5234 15.7344C88.3203 16.7188 87.9922 17.625 87.5391 18.4531C87.0859 19.2812 86.5 20.0469 85.7812 20.75C85.0625 21.4531 84.1953 22.125 83.1797 22.7656L88.7578 32.7031L78.2109 34.7656L74.6016 24.7812L71.6953 24.875L71.2734 34.625H61.1953C61.2734 31.0625 61.3438 27.5156 61.4062 23.9844C61.4844 20.4531 61.5703 16.9062 61.6641 13.3438C61.6953 11.5469 61.7266 9.76562 61.7578 8C61.7891 6.23438 61.8516 4.45313 61.9453 2.65625C63.0391 2.25 64.1172 1.91406 65.1797 1.64844C66.2422 1.38281 67.3047 1.17969 68.3672 1.03906C69.4453 0.882812 70.5312 0.78125 71.625 0.734375C72.7344 0.671875 73.8672 0.640625 75.0234 0.640625C76.8047 0.640625 78.5234 0.890625 80.1797 1.39062C81.8516 1.875 83.3281 2.60938 84.6094 3.59375C85.8906 4.57812 86.9141 5.80469 87.6797 7.27344C88.4609 8.74219 88.8516 10.4531 88.8516 12.4062ZM78.3516 13.1562C78.3516 12.5 78.2578 11.8984 78.0703 11.3516C77.8984 10.8047 77.6328 10.3359 77.2734 9.94531C76.9297 9.53906 76.4922 9.22656 75.9609 9.00781C75.4453 8.77344 74.8359 8.65625 74.1328 8.65625C73.8203 8.65625 73.5156 8.67969 73.2188 8.72656C72.9219 8.75781 72.6328 8.8125 72.3516 8.89062L71.9766 17.6094H72.5391C73.2109 17.6094 73.8906 17.5234 74.5781 17.3516C75.2812 17.1797 75.9062 16.9141 76.4531 16.5547C77.0156 16.1953 77.4688 15.7344 77.8125 15.1719C78.1719 14.6094 78.3516 13.9375 78.3516 13.1562ZM102.727 2L101.086 33.9219L91.1953 34.4375L90.2578 2.65625L102.727 2ZM126.633 10.2031L115.898 23.75H125.789L126.117 33.6875L105.211 34.5312L104.273 25.3438L116.508 10.3438L104.367 11.1875L104.273 1.76562H126.211L126.633 10.2031ZM158.016 32.9844L146.391 34.4844L144.984 29.1875H139.641L138.469 34.4844L126.516 33.3125L135.844 2.09375L148.875 1.4375L158.016 32.9844ZM144.141 22.0156L142.359 13.8594L140.625 22.0156H144.141ZM185.789 26.6562C185.789 27.9531 185.547 29.0703 185.062 30.0078C184.594 30.9453 183.961 31.7422 183.164 32.3984C182.367 33.0547 181.445 33.5938 180.398 34.0156C179.367 34.4219 178.289 34.7422 177.164 34.9766C176.039 35.2109 174.906 35.3672 173.766 35.4453C172.641 35.5234 171.586 35.5625 170.602 35.5625C169.633 35.5625 168.625 35.5234 167.578 35.4453C166.547 35.3828 165.516 35.2656 164.484 35.0938C163.453 34.9219 162.438 34.6953 161.438 34.4141C160.438 34.1172 159.492 33.75 158.602 33.3125L158.555 3.125C159.43 2.76563 160.359 2.44531 161.344 2.16406C162.328 1.86719 163.328 1.625 164.344 1.4375C165.375 1.23437 166.398 1.08594 167.414 0.992188C168.43 0.882812 169.414 0.828125 170.367 0.828125C171.477 0.828125 172.594 0.898438 173.719 1.03906C174.859 1.17969 175.953 1.41406 177 1.74219C178.047 2.07031 179.023 2.5 179.93 3.03125C180.836 3.54688 181.625 4.1875 182.297 4.95312C182.984 5.71875 183.516 6.60938 183.891 7.625C184.281 8.64062 184.477 9.8125 184.477 11.1406C184.477 12.0156 184.352 12.8359 184.102 13.6016C183.852 14.3672 183.492 15.0547 183.023 15.6641C182.555 16.2734 181.984 16.7969 181.312 17.2344C180.641 17.6562 179.883 17.9688 179.039 18.1719C180.055 18.4375 180.977 18.8281 181.805 19.3438C182.648 19.8594 183.359 20.4844 183.938 21.2188C184.531 21.9531 184.984 22.7812 185.297 23.7031C185.625 24.625 185.789 25.6094 185.789 26.6562ZM173.883 13.2969C173.883 12.8438 173.789 12.4609 173.602 12.1484C173.414 11.8203 173.18 11.5547 172.898 11.3516C172.633 11.1484 172.336 11 172.008 10.9062C171.695 10.8125 171.414 10.7656 171.164 10.7656C170.852 10.7656 170.547 10.8125 170.25 10.9062C169.953 11 169.664 11.1094 169.383 11.2344L169.242 16.4375C169.602 16.4375 170.047 16.4062 170.578 16.3438C171.109 16.2812 171.617 16.1484 172.102 15.9453C172.602 15.7266 173.023 15.4141 173.367 15.0078C173.711 14.5859 173.883 14.0156 173.883 13.2969ZM170.555 20.9375C170.102 20.9375 169.664 20.9844 169.242 21.0781L169.148 26.4219C169.383 26.4688 169.609 26.5156 169.828 26.5625C170.062 26.5938 170.289 26.6094 170.508 26.6094C170.836 26.6094 171.195 26.5781 171.586 26.5156C171.977 26.4375 172.344 26.2969 172.688 26.0938C173.031 25.875 173.312 25.5859 173.531 25.2266C173.766 24.8672 173.883 24.3906 173.883 23.7969C173.883 23.2031 173.766 22.7188 173.531 22.3438C173.312 21.9688 173.039 21.6797 172.711 21.4766C172.383 21.2578 172.023 21.1172 171.633 21.0547C171.242 20.9766 170.883 20.9375 170.555 20.9375ZM216.609 32.9844L204.984 34.4844L203.578 29.1875H198.234L197.062 34.4844L185.109 33.3125L194.438 2.09375L207.469 1.4375L216.609 32.9844ZM202.734 22.0156L200.953 13.8594L199.219 22.0156H202.734ZM237.656 22.5781L236.672 32.9844L216.938 34.5312L217.688 1.0625H229.875L228.141 22.5781H237.656Z" fill="white"/>
</svg>
