<svg width="584" height="36" viewBox="0 0 584 36" fill="none" xmlns="http://www.w3.org/2000/svg">
<path d="M22.3906 1.20312C22.2969 2.67188 22.2109 4.125 22.1328 5.5625C22.0547 7 21.9531 8.45312 21.8281 9.92188L11.8906 10.4375L11.6562 13.3906H18.6406L18.125 20.6562L11.0938 20.8906L10.8594 24.3125H16.6719H20.7969C20.7031 26.0312 20.6016 27.7422 20.4922 29.4453C20.3984 31.1328 20.3125 32.8281 20.2344 34.5312L0.03125 35L0.78125 1.20312H22.3906ZM52.2969 23.1406C52.2969 24.9062 52.2734 26.6562 52.2266 28.3906C52.1953 30.1094 52.1406 31.8438 52.0625 33.5938L38.5625 33.3594C39.0312 30.5938 39.4375 27.8359 39.7812 25.0859C40.125 22.3203 40.2969 19.5312 40.2969 16.7188C40.2969 16.5156 40.2891 16.1875 40.2734 15.7344C40.2578 15.2812 40.2266 14.7734 40.1797 14.2109C40.1328 13.6328 40.0625 13.0469 39.9688 12.4531C39.8906 11.8438 39.7734 11.2891 39.6172 10.7891C39.4766 10.2891 39.2969 9.88281 39.0781 9.57031C38.875 9.24219 38.625 9.07812 38.3281 9.07812C37.7969 9.07812 37.3438 9.23438 36.9688 9.54688C36.6094 9.85937 36.3047 10.2656 36.0547 10.7656C35.8203 11.25 35.6328 11.7969 35.4922 12.4062C35.3516 13.0156 35.2422 13.625 35.1641 14.2344C35.1016 14.8438 35.0547 15.4219 35.0234 15.9688C35.0078 16.5 35 16.9375 35 17.2812C34.9219 20.0469 34.8594 22.7969 34.8125 25.5312C34.7656 28.25 34.7031 31 34.625 33.7812L22.6719 34.2969C22.9844 28.7812 23.2812 23.2969 23.5625 17.8438C23.8594 12.3906 24.0938 6.90625 24.2656 1.39062L35.3281 0.828125L35.2344 4.57812C35.6719 4.04687 36.1406 3.54688 36.6406 3.07812C37.1562 2.60938 37.7031 2.21094 38.2812 1.88281C38.8594 1.53906 39.4688 1.27344 40.1094 1.08594C40.7656 0.882812 41.4531 0.78125 42.1719 0.78125C43.5 0.78125 44.6641 1 45.6641 1.4375C46.6641 1.875 47.5234 2.46875 48.2422 3.21875C48.9609 3.96875 49.5625 4.85938 50.0469 5.89062C50.5312 6.90625 50.9219 7.99219 51.2188 9.14844C51.5156 10.3047 51.7422 11.5156 51.8984 12.7812C52.0547 14.0312 52.1562 15.2656 52.2031 16.4844C52.2656 17.7031 52.2969 18.8828 52.2969 20.0234C52.2969 21.1641 52.2969 22.2031 52.2969 23.1406ZM81.0781 16.3906C81.0781 18.5781 80.7969 20.5391 80.2344 22.2734C79.6719 24.0078 78.8828 25.5469 77.8672 26.8906C76.8672 28.2188 75.6719 29.3516 74.2812 30.2891C72.8906 31.2266 71.3672 32 69.7109 32.6094C68.0547 33.2031 66.2891 33.6406 64.4141 33.9219C62.5547 34.2031 60.6406 34.3438 58.6719 34.3438C57.9375 34.3438 57.2188 34.3281 56.5156 34.2969C55.8125 34.25 55.0938 34.1875 54.3594 34.1094L55.0156 3.59375C56.7344 3.04688 58.5 2.66406 60.3125 2.44531C62.1406 2.21094 63.9531 2.09375 65.75 2.09375C67.9844 2.09375 70.0391 2.40625 71.9141 3.03125C73.7891 3.65625 75.4062 4.57812 76.7656 5.79688C78.125 7 79.1797 8.49219 79.9297 10.2734C80.6953 12.0391 81.0781 14.0781 81.0781 16.3906ZM65.1406 25.3906C66.0781 25.25 66.9297 24.9688 67.6953 24.5469C68.4766 24.1094 69.1484 23.5781 69.7109 22.9531C70.2734 22.3125 70.7031 21.5938 71 20.7969C71.3125 19.9844 71.4688 19.125 71.4688 18.2188C71.4688 17.3281 71.375 16.5 71.1875 15.7344C71 14.9531 70.6953 14.2812 70.2734 13.7188C69.8516 13.1406 69.2969 12.6875 68.6094 12.3594C67.9219 12.0156 67.0781 11.8281 66.0781 11.7969L65.1406 25.3906ZM108.711 16.0625C108.711 17.4219 108.617 18.7812 108.43 20.1406C105.758 20.3125 103.102 20.5938 100.461 20.9844C97.8203 21.3594 95.1797 21.7344 92.5391 22.1094C92.9453 23.2344 93.5781 24.1328 94.4375 24.8047C95.3125 25.4766 96.3516 25.8125 97.5547 25.8125C98.1797 25.8125 98.8594 25.6953 99.5938 25.4609C100.344 25.2266 101.086 24.9375 101.82 24.5938C102.555 24.2344 103.258 23.8516 103.93 23.4453C104.602 23.0391 105.18 22.6719 105.664 22.3438L104.539 32.9844C103.93 33.4531 103.266 33.8516 102.547 34.1797C101.844 34.5078 101.109 34.7734 100.344 34.9766C99.5781 35.1797 98.8047 35.3281 98.0234 35.4219C97.2422 35.5156 96.4766 35.5625 95.7266 35.5625C94.1797 35.5625 92.7656 35.3516 91.4844 34.9297C90.2031 34.5078 89.0391 33.9219 87.9922 33.1719C86.9609 32.4062 86.0547 31.5078 85.2734 30.4766C84.4922 29.4453 83.8438 28.3203 83.3281 27.1016C82.8125 25.8828 82.4219 24.5938 82.1562 23.2344C81.8906 21.875 81.7578 20.5 81.7578 19.1094C81.7578 17.6562 81.8906 16.2031 82.1562 14.75C82.4219 13.2969 82.8203 11.8984 83.3516 10.5547C83.8984 9.21094 84.5781 7.96875 85.3906 6.82812C86.2188 5.67188 87.1797 4.66406 88.2734 3.80469C89.3672 2.94531 90.6016 2.27344 91.9766 1.78906C93.3672 1.30469 94.8984 1.0625 96.5703 1.0625C97.9609 1.0625 99.2266 1.25781 100.367 1.64844C101.523 2.02344 102.547 2.55469 103.438 3.24219C104.344 3.91406 105.125 4.71875 105.781 5.65625C106.453 6.59375 107 7.625 107.422 8.75C107.859 9.85937 108.18 11.0391 108.383 12.2891C108.602 13.5234 108.711 14.7812 108.711 16.0625ZM99.3359 14.8438C99.3359 14.4062 99.2891 13.9609 99.1953 13.5078C99.1016 13.0391 98.9453 12.6172 98.7266 12.2422C98.5234 11.8672 98.25 11.5625 97.9062 11.3281C97.5625 11.0781 97.1328 10.9531 96.6172 10.9531C95.9922 10.9531 95.4375 11.125 94.9531 11.4688C94.4844 11.7969 94.0781 12.2188 93.7344 12.7344C93.3906 13.2344 93.1094 13.7812 92.8906 14.375C92.6719 14.9688 92.5078 15.5156 92.3984 16.0156L99.3359 15.3594V14.8438ZM137.727 12.4062C137.727 13.625 137.617 14.7344 137.398 15.7344C137.195 16.7188 136.867 17.625 136.414 18.4531C135.961 19.2812 135.375 20.0469 134.656 20.75C133.938 21.4531 133.07 22.125 132.055 22.7656L137.633 32.7031L127.086 34.7656L123.477 24.7812L120.57 24.875L120.148 34.625H110.07C110.148 31.0625 110.219 27.5156 110.281 23.9844C110.359 20.4531 110.445 16.9062 110.539 13.3438C110.57 11.5469 110.602 9.76562 110.633 8C110.664 6.23438 110.727 4.45313 110.82 2.65625C111.914 2.25 112.992 1.91406 114.055 1.64844C115.117 1.38281 116.18 1.17969 117.242 1.03906C118.32 0.882812 119.406 0.78125 120.5 0.734375C121.609 0.671875 122.742 0.640625 123.898 0.640625C125.68 0.640625 127.398 0.890625 129.055 1.39062C130.727 1.875 132.203 2.60938 133.484 3.59375C134.766 4.57812 135.789 5.80469 136.555 7.27344C137.336 8.74219 137.727 10.4531 137.727 12.4062ZM127.227 13.1562C127.227 12.5 127.133 11.8984 126.945 11.3516C126.773 10.8047 126.508 10.3359 126.148 9.94531C125.805 9.53906 125.367 9.22656 124.836 9.00781C124.32 8.77344 123.711 8.65625 123.008 8.65625C122.695 8.65625 122.391 8.67969 122.094 8.72656C121.797 8.75781 121.508 8.8125 121.227 8.89062L120.852 17.6094H121.414C122.086 17.6094 122.766 17.5234 123.453 17.3516C124.156 17.1797 124.781 16.9141 125.328 16.5547C125.891 16.1953 126.344 15.7344 126.688 15.1719C127.047 14.6094 127.227 13.9375 127.227 13.1562ZM177.031 30.2188C176.297 31.1406 175.391 31.9453 174.312 32.6328C173.234 33.3203 172.078 33.8906 170.844 34.3438C169.609 34.7969 168.344 35.1328 167.047 35.3516C165.75 35.5859 164.516 35.7031 163.344 35.7031C161.078 35.7031 158.992 35.2969 157.086 34.4844C155.18 33.6719 153.531 32.5547 152.141 31.1328C150.766 29.6953 149.688 28.0078 148.906 26.0703C148.125 24.1328 147.734 22.0469 147.734 19.8125C147.734 18.1094 147.93 16.4453 148.32 14.8203C148.711 13.1797 149.266 11.6406 149.984 10.2031C150.719 8.75 151.609 7.42187 152.656 6.21875C153.703 5 154.891 3.95312 156.219 3.07812C157.547 2.20313 159 1.52344 160.578 1.03906C162.156 0.554687 163.844 0.3125 165.641 0.3125C166.312 0.3125 167.031 0.34375 167.797 0.40625C168.562 0.453125 169.32 0.546875 170.07 0.6875C170.836 0.8125 171.578 0.992188 172.297 1.22656C173.016 1.46094 173.672 1.75 174.266 2.09375L173.609 11.0469C172.734 10.7188 171.828 10.5 170.891 10.3906C169.969 10.2656 169.062 10.2031 168.172 10.2031C166.922 10.2031 165.75 10.3984 164.656 10.7891C163.578 11.1641 162.633 11.7109 161.82 12.4297C161.023 13.1484 160.391 14.0234 159.922 15.0547C159.453 16.0859 159.219 17.25 159.219 18.5469C159.219 19.3594 159.328 20.1484 159.547 20.9141C159.766 21.6641 160.094 22.3359 160.531 22.9297C160.984 23.5078 161.539 23.9766 162.195 24.3359C162.867 24.6953 163.641 24.875 164.516 24.875C165.109 24.875 165.719 24.7969 166.344 24.6406C166.984 24.4844 167.531 24.2188 167.984 23.8438L168.078 22.0156L162.453 21.9219L162.734 14.8906C165.062 14.8125 167.391 14.75 169.719 14.7031C172.047 14.6406 174.391 14.5625 176.75 14.4688L177.031 30.2188ZM208.391 32.9844L196.766 34.4844L195.359 29.1875H190.016L188.844 34.4844L176.891 33.3125L186.219 2.09375L199.25 1.4375L208.391 32.9844ZM194.516 22.0156L192.734 13.8594L191 22.0156H194.516ZM236.352 12.4062C236.352 13.625 236.242 14.7344 236.023 15.7344C235.82 16.7188 235.492 17.625 235.039 18.4531C234.586 19.2812 234 20.0469 233.281 20.75C232.562 21.4531 231.695 22.125 230.68 22.7656L236.258 32.7031L225.711 34.7656L222.102 24.7812L219.195 24.875L218.773 34.625H208.695C208.773 31.0625 208.844 27.5156 208.906 23.9844C208.984 20.4531 209.07 16.9062 209.164 13.3438C209.195 11.5469 209.227 9.76562 209.258 8C209.289 6.23438 209.352 4.45313 209.445 2.65625C210.539 2.25 211.617 1.91406 212.68 1.64844C213.742 1.38281 214.805 1.17969 215.867 1.03906C216.945 0.882812 218.031 0.78125 219.125 0.734375C220.234 0.671875 221.367 0.640625 222.523 0.640625C224.305 0.640625 226.023 0.890625 227.68 1.39062C229.352 1.875 230.828 2.60938 232.109 3.59375C233.391 4.57812 234.414 5.80469 235.18 7.27344C235.961 8.74219 236.352 10.4531 236.352 12.4062ZM225.852 13.1562C225.852 12.5 225.758 11.8984 225.57 11.3516C225.398 10.8047 225.133 10.3359 224.773 9.94531C224.43 9.53906 223.992 9.22656 223.461 9.00781C222.945 8.77344 222.336 8.65625 221.633 8.65625C221.32 8.65625 221.016 8.67969 220.719 8.72656C220.422 8.75781 220.133 8.8125 219.852 8.89062L219.477 17.6094H220.039C220.711 17.6094 221.391 17.5234 222.078 17.3516C222.781 17.1797 223.406 16.9141 223.953 16.5547C224.516 16.1953 224.969 15.7344 225.312 15.1719C225.672 14.6094 225.852 13.9375 225.852 13.1562ZM250.227 2L248.586 33.9219L238.695 34.4375L237.758 2.65625L250.227 2ZM274.133 10.2031L263.398 23.75H273.289L273.617 33.6875L252.711 34.5312L251.773 25.3438L264.008 10.3438L251.867 11.1875L251.773 1.76562H273.711L274.133 10.2031ZM305.516 32.9844L293.891 34.4844L292.484 29.1875H287.141L285.969 34.4844L274.016 33.3125L283.344 2.09375L296.375 1.4375L305.516 32.9844ZM291.641 22.0156L289.859 13.8594L288.125 22.0156H291.641ZM333.289 26.6562C333.289 27.9531 333.047 29.0703 332.562 30.0078C332.094 30.9453 331.461 31.7422 330.664 32.3984C329.867 33.0547 328.945 33.5938 327.898 34.0156C326.867 34.4219 325.789 34.7422 324.664 34.9766C323.539 35.2109 322.406 35.3672 321.266 35.4453C320.141 35.5234 319.086 35.5625 318.102 35.5625C317.133 35.5625 316.125 35.5234 315.078 35.4453C314.047 35.3828 313.016 35.2656 311.984 35.0938C310.953 34.9219 309.938 34.6953 308.938 34.4141C307.938 34.1172 306.992 33.75 306.102 33.3125L306.055 3.125C306.93 2.76563 307.859 2.44531 308.844 2.16406C309.828 1.86719 310.828 1.625 311.844 1.4375C312.875 1.23437 313.898 1.08594 314.914 0.992188C315.93 0.882812 316.914 0.828125 317.867 0.828125C318.977 0.828125 320.094 0.898438 321.219 1.03906C322.359 1.17969 323.453 1.41406 324.5 1.74219C325.547 2.07031 326.523 2.5 327.43 3.03125C328.336 3.54688 329.125 4.1875 329.797 4.95312C330.484 5.71875 331.016 6.60938 331.391 7.625C331.781 8.64062 331.977 9.8125 331.977 11.1406C331.977 12.0156 331.852 12.8359 331.602 13.6016C331.352 14.3672 330.992 15.0547 330.523 15.6641C330.055 16.2734 329.484 16.7969 328.812 17.2344C328.141 17.6562 327.383 17.9688 326.539 18.1719C327.555 18.4375 328.477 18.8281 329.305 19.3438C330.148 19.8594 330.859 20.4844 331.438 21.2188C332.031 21.9531 332.484 22.7812 332.797 23.7031C333.125 24.625 333.289 25.6094 333.289 26.6562ZM321.383 13.2969C321.383 12.8438 321.289 12.4609 321.102 12.1484C320.914 11.8203 320.68 11.5547 320.398 11.3516C320.133 11.1484 319.836 11 319.508 10.9062C319.195 10.8125 318.914 10.7656 318.664 10.7656C318.352 10.7656 318.047 10.8125 317.75 10.9062C317.453 11 317.164 11.1094 316.883 11.2344L316.742 16.4375C317.102 16.4375 317.547 16.4062 318.078 16.3438C318.609 16.2812 319.117 16.1484 319.602 15.9453C320.102 15.7266 320.523 15.4141 320.867 15.0078C321.211 14.5859 321.383 14.0156 321.383 13.2969ZM318.055 20.9375C317.602 20.9375 317.164 20.9844 316.742 21.0781L316.648 26.4219C316.883 26.4688 317.109 26.5156 317.328 26.5625C317.562 26.5938 317.789 26.6094 318.008 26.6094C318.336 26.6094 318.695 26.5781 319.086 26.5156C319.477 26.4375 319.844 26.2969 320.188 26.0938C320.531 25.875 320.812 25.5859 321.031 25.2266C321.266 24.8672 321.383 24.3906 321.383 23.7969C321.383 23.2031 321.266 22.7188 321.031 22.3438C320.812 21.9688 320.539 21.6797 320.211 21.4766C319.883 21.2578 319.523 21.1172 319.133 21.0547C318.742 20.9766 318.383 20.9375 318.055 20.9375ZM364.109 32.9844L352.484 34.4844L351.078 29.1875H345.734L344.562 34.4844L332.609 33.3125L341.938 2.09375L354.969 1.4375L364.109 32.9844ZM350.234 22.0156L348.453 13.8594L346.719 22.0156H350.234ZM385.156 22.5781L384.172 32.9844L364.438 34.5312L365.188 1.0625H377.375L375.641 22.5781H385.156ZM419.633 22.5312C419.633 24.6719 419.258 26.5469 418.508 28.1562C417.773 29.75 416.758 31.0781 415.461 32.1406C414.18 33.2031 412.672 34 410.938 34.5312C409.219 35.0625 407.367 35.3281 405.383 35.3281C404.617 35.3281 403.773 35.2266 402.852 35.0234C401.945 34.8203 401.023 34.5703 400.086 34.2734C399.148 33.9609 398.242 33.6328 397.367 33.2891C396.508 32.9297 395.742 32.5938 395.07 32.2812L396.102 22.625C397.43 23.4219 398.898 24.0312 400.508 24.4531C402.133 24.8594 403.727 25.0625 405.289 25.0625C405.586 25.0625 405.945 25.0547 406.367 25.0391C406.789 25.0078 407.188 24.9375 407.562 24.8281C407.953 24.7031 408.281 24.5234 408.547 24.2891C408.812 24.0547 408.945 23.7188 408.945 23.2812C408.945 22.9844 408.852 22.7344 408.664 22.5312C408.477 22.3125 408.234 22.1406 407.938 22.0156C407.641 21.875 407.305 21.7734 406.93 21.7109C406.555 21.6328 406.188 21.5781 405.828 21.5469C405.469 21.5156 405.133 21.5 404.82 21.5C404.508 21.5 404.258 21.5 404.07 21.5C402.727 21.5 401.5 21.2656 400.391 20.7969C399.297 20.3281 398.352 19.6797 397.555 18.8516C396.773 18.0078 396.164 17.0156 395.727 15.875C395.289 14.7188 395.07 13.4688 395.07 12.125C395.07 10.2812 395.438 8.63281 396.172 7.17969C396.922 5.71094 397.914 4.46875 399.148 3.45312C400.398 2.42188 401.828 1.63281 403.438 1.08594C405.047 0.539063 406.711 0.265625 408.43 0.265625C409.195 0.265625 409.984 0.296875 410.797 0.359375C411.609 0.40625 412.414 0.5 413.211 0.640625C414.023 0.78125 414.812 0.960938 415.578 1.17969C416.344 1.39844 417.07 1.67188 417.758 2L416.867 11.5156C415.805 11.1562 414.688 10.8594 413.516 10.625C412.359 10.375 411.227 10.25 410.117 10.25C409.914 10.25 409.648 10.2578 409.32 10.2734C409.008 10.2734 408.672 10.2969 408.312 10.3438C407.969 10.375 407.617 10.4297 407.258 10.5078C406.898 10.5859 406.578 10.6953 406.297 10.8359C406.016 10.9609 405.789 11.1328 405.617 11.3516C405.445 11.5703 405.367 11.8281 405.383 12.125C405.398 12.4688 405.523 12.75 405.758 12.9688C406.008 13.1719 406.32 13.3359 406.695 13.4609C407.086 13.5703 407.508 13.6484 407.961 13.6953C408.43 13.7422 408.891 13.7734 409.344 13.7891C409.797 13.7891 410.219 13.7891 410.609 13.7891C411 13.7734 411.32 13.7812 411.57 13.8125C412.82 13.8906 413.945 14.1562 414.945 14.6094C415.945 15.0625 416.789 15.6641 417.477 16.4141C418.18 17.1641 418.711 18.0625 419.07 19.1094C419.445 20.1406 419.633 21.2812 419.633 22.5312ZM450.102 17.0469C450.102 18.4688 449.938 19.8438 449.609 21.1719C449.281 22.4844 448.805 23.7188 448.18 24.875C447.57 26.0312 446.82 27.0938 445.93 28.0625C445.055 29.0156 444.062 29.8359 442.953 30.5234C441.859 31.2109 440.664 31.75 439.367 32.1406C438.07 32.5156 436.695 32.7031 435.242 32.7031C433.836 32.7031 432.492 32.5234 431.211 32.1641C429.945 31.8047 428.758 31.3047 427.648 30.6641C426.539 30.0078 425.531 29.2266 424.625 28.3203C423.734 27.3984 422.969 26.3828 422.328 25.2734C421.703 24.1484 421.211 22.9453 420.852 21.6641C420.508 20.3828 420.336 19.0469 420.336 17.6562C420.336 16.2969 420.5 14.9688 420.828 13.6719C421.156 12.3594 421.625 11.125 422.234 9.96875C422.859 8.8125 423.609 7.75 424.484 6.78125C425.359 5.8125 426.336 4.97656 427.414 4.27344C428.508 3.57031 429.688 3.02344 430.953 2.63281C432.219 2.24219 433.555 2.04688 434.961 2.04688C437.227 2.04688 439.289 2.39844 441.148 3.10156C443.023 3.80469 444.617 4.8125 445.93 6.125C447.258 7.42187 448.281 9 449 10.8594C449.734 12.7031 450.102 14.7656 450.102 17.0469ZM439.695 17.6562C439.695 16.9844 439.594 16.3359 439.391 15.7109C439.203 15.0703 438.922 14.5078 438.547 14.0234C438.172 13.5234 437.703 13.125 437.141 12.8281C436.594 12.5156 435.961 12.3594 435.242 12.3594C434.508 12.3594 433.852 12.4922 433.273 12.7578C432.695 13.0234 432.195 13.3906 431.773 13.8594C431.367 14.3125 431.055 14.8516 430.836 15.4766C430.617 16.0859 430.508 16.7344 430.508 17.4219C430.508 18.0781 430.602 18.7344 430.789 19.3906C430.977 20.0469 431.258 20.6406 431.633 21.1719C432.008 21.7031 432.469 22.1328 433.016 22.4609C433.578 22.7891 434.227 22.9531 434.961 22.9531C435.695 22.9531 436.352 22.8125 436.93 22.5312C437.523 22.2344 438.023 21.8438 438.43 21.3594C438.836 20.8594 439.148 20.2891 439.367 19.6484C439.586 19.0078 439.695 18.3438 439.695 17.6562ZM479.023 26.6562C479.023 27.9531 478.781 29.0703 478.297 30.0078C477.828 30.9453 477.195 31.7422 476.398 32.3984C475.602 33.0547 474.68 33.5938 473.633 34.0156C472.602 34.4219 471.523 34.7422 470.398 34.9766C469.273 35.2109 468.141 35.3672 467 35.4453C465.875 35.5234 464.82 35.5625 463.836 35.5625C462.867 35.5625 461.859 35.5234 460.812 35.4453C459.781 35.3828 458.75 35.2656 457.719 35.0938C456.688 34.9219 455.672 34.6953 454.672 34.4141C453.672 34.1172 452.727 33.75 451.836 33.3125L451.789 3.125C452.664 2.76563 453.594 2.44531 454.578 2.16406C455.562 1.86719 456.562 1.625 457.578 1.4375C458.609 1.23437 459.633 1.08594 460.648 0.992188C461.664 0.882812 462.648 0.828125 463.602 0.828125C464.711 0.828125 465.828 0.898438 466.953 1.03906C468.094 1.17969 469.188 1.41406 470.234 1.74219C471.281 2.07031 472.258 2.5 473.164 3.03125C474.07 3.54688 474.859 4.1875 475.531 4.95312C476.219 5.71875 476.75 6.60938 477.125 7.625C477.516 8.64062 477.711 9.8125 477.711 11.1406C477.711 12.0156 477.586 12.8359 477.336 13.6016C477.086 14.3672 476.727 15.0547 476.258 15.6641C475.789 16.2734 475.219 16.7969 474.547 17.2344C473.875 17.6562 473.117 17.9688 472.273 18.1719C473.289 18.4375 474.211 18.8281 475.039 19.3438C475.883 19.8594 476.594 20.4844 477.172 21.2188C477.766 21.9531 478.219 22.7812 478.531 23.7031C478.859 24.625 479.023 25.6094 479.023 26.6562ZM467.117 13.2969C467.117 12.8438 467.023 12.4609 466.836 12.1484C466.648 11.8203 466.414 11.5547 466.133 11.3516C465.867 11.1484 465.57 11 465.242 10.9062C464.93 10.8125 464.648 10.7656 464.398 10.7656C464.086 10.7656 463.781 10.8125 463.484 10.9062C463.188 11 462.898 11.1094 462.617 11.2344L462.477 16.4375C462.836 16.4375 463.281 16.4062 463.812 16.3438C464.344 16.2812 464.852 16.1484 465.336 15.9453C465.836 15.7266 466.258 15.4141 466.602 15.0078C466.945 14.5859 467.117 14.0156 467.117 13.2969ZM463.789 20.9375C463.336 20.9375 462.898 20.9844 462.477 21.0781L462.383 26.4219C462.617 26.4688 462.844 26.5156 463.062 26.5625C463.297 26.5938 463.523 26.6094 463.742 26.6094C464.07 26.6094 464.43 26.5781 464.82 26.5156C465.211 26.4375 465.578 26.2969 465.922 26.0938C466.266 25.875 466.547 25.5859 466.766 25.2266C467 24.8672 467.117 24.3906 467.117 23.7969C467.117 23.2031 467 22.7188 466.766 22.3438C466.547 21.9688 466.273 21.6797 465.945 21.4766C465.617 21.2578 465.258 21.1172 464.867 21.0547C464.477 20.9766 464.117 20.9375 463.789 20.9375ZM507.758 12.4062C507.758 13.625 507.648 14.7344 507.43 15.7344C507.227 16.7188 506.898 17.625 506.445 18.4531C505.992 19.2812 505.406 20.0469 504.688 20.75C503.969 21.4531 503.102 22.125 502.086 22.7656L507.664 32.7031L497.117 34.7656L493.508 24.7812L490.602 24.875L490.18 34.625H480.102C480.18 31.0625 480.25 27.5156 480.312 23.9844C480.391 20.4531 480.477 16.9062 480.57 13.3438C480.602 11.5469 480.633 9.76562 480.664 8C480.695 6.23438 480.758 4.45313 480.852 2.65625C481.945 2.25 483.023 1.91406 484.086 1.64844C485.148 1.38281 486.211 1.17969 487.273 1.03906C488.352 0.882812 489.438 0.78125 490.531 0.734375C491.641 0.671875 492.773 0.640625 493.93 0.640625C495.711 0.640625 497.43 0.890625 499.086 1.39062C500.758 1.875 502.234 2.60938 503.516 3.59375C504.797 4.57812 505.82 5.80469 506.586 7.27344C507.367 8.74219 507.758 10.4531 507.758 12.4062ZM497.258 13.1562C497.258 12.5 497.164 11.8984 496.977 11.3516C496.805 10.8047 496.539 10.3359 496.18 9.94531C495.836 9.53906 495.398 9.22656 494.867 9.00781C494.352 8.77344 493.742 8.65625 493.039 8.65625C492.727 8.65625 492.422 8.67969 492.125 8.72656C491.828 8.75781 491.539 8.8125 491.258 8.89062L490.883 17.6094H491.445C492.117 17.6094 492.797 17.5234 493.484 17.3516C494.188 17.1797 494.812 16.9141 495.359 16.5547C495.922 16.1953 496.375 15.7344 496.719 15.1719C497.078 14.6094 497.258 13.9375 497.258 13.1562ZM521.633 2L519.992 33.9219L510.102 34.4375L509.164 2.65625L521.633 2ZM552.641 23.1406C552.641 24.9062 552.617 26.6562 552.57 28.3906C552.539 30.1094 552.484 31.8438 552.406 33.5938L538.906 33.3594C539.375 30.5938 539.781 27.8359 540.125 25.0859C540.469 22.3203 540.641 19.5312 540.641 16.7188C540.641 16.5156 540.633 16.1875 540.617 15.7344C540.602 15.2812 540.57 14.7734 540.523 14.2109C540.477 13.6328 540.406 13.0469 540.312 12.4531C540.234 11.8438 540.117 11.2891 539.961 10.7891C539.82 10.2891 539.641 9.88281 539.422 9.57031C539.219 9.24219 538.969 9.07812 538.672 9.07812C538.141 9.07812 537.688 9.23438 537.312 9.54688C536.953 9.85937 536.648 10.2656 536.398 10.7656C536.164 11.25 535.977 11.7969 535.836 12.4062C535.695 13.0156 535.586 13.625 535.508 14.2344C535.445 14.8438 535.398 15.4219 535.367 15.9688C535.352 16.5 535.344 16.9375 535.344 17.2812C535.266 20.0469 535.203 22.7969 535.156 25.5312C535.109 28.25 535.047 31 534.969 33.7812L523.016 34.2969C523.328 28.7812 523.625 23.2969 523.906 17.8438C524.203 12.3906 524.438 6.90625 524.609 1.39062L535.672 0.828125L535.578 4.57812C536.016 4.04687 536.484 3.54688 536.984 3.07812C537.5 2.60938 538.047 2.21094 538.625 1.88281C539.203 1.53906 539.812 1.27344 540.453 1.08594C541.109 0.882812 541.797 0.78125 542.516 0.78125C543.844 0.78125 545.008 1 546.008 1.4375C547.008 1.875 547.867 2.46875 548.586 3.21875C549.305 3.96875 549.906 4.85938 550.391 5.89062C550.875 6.90625 551.266 7.99219 551.562 9.14844C551.859 10.3047 552.086 11.5156 552.242 12.7812C552.398 14.0312 552.5 15.2656 552.547 16.4844C552.609 17.7031 552.641 18.8828 552.641 20.0234C552.641 21.1641 552.641 22.2031 552.641 23.1406ZM583.836 17.0469C583.836 18.4688 583.672 19.8438 583.344 21.1719C583.016 22.4844 582.539 23.7188 581.914 24.875C581.305 26.0312 580.555 27.0938 579.664 28.0625C578.789 29.0156 577.797 29.8359 576.688 30.5234C575.594 31.2109 574.398 31.75 573.102 32.1406C571.805 32.5156 570.43 32.7031 568.977 32.7031C567.57 32.7031 566.227 32.5234 564.945 32.1641C563.68 31.8047 562.492 31.3047 561.383 30.6641C560.273 30.0078 559.266 29.2266 558.359 28.3203C557.469 27.3984 556.703 26.3828 556.062 25.2734C555.438 24.1484 554.945 22.9453 554.586 21.6641C554.242 20.3828 554.07 19.0469 554.07 17.6562C554.07 16.2969 554.234 14.9688 554.562 13.6719C554.891 12.3594 555.359 11.125 555.969 9.96875C556.594 8.8125 557.344 7.75 558.219 6.78125C559.094 5.8125 560.07 4.97656 561.148 4.27344C562.242 3.57031 563.422 3.02344 564.688 2.63281C565.953 2.24219 567.289 2.04688 568.695 2.04688C570.961 2.04688 573.023 2.39844 574.883 3.10156C576.758 3.80469 578.352 4.8125 579.664 6.125C580.992 7.42187 582.016 9 582.734 10.8594C583.469 12.7031 583.836 14.7656 583.836 17.0469ZM573.43 17.6562C573.43 16.9844 573.328 16.3359 573.125 15.7109C572.938 15.0703 572.656 14.5078 572.281 14.0234C571.906 13.5234 571.438 13.125 570.875 12.8281C570.328 12.5156 569.695 12.3594 568.977 12.3594C568.242 12.3594 567.586 12.4922 567.008 12.7578C566.43 13.0234 565.93 13.3906 565.508 13.8594C565.102 14.3125 564.789 14.8516 564.57 15.4766C564.352 16.0859 564.242 16.7344 564.242 17.4219C564.242 18.0781 564.336 18.7344 564.523 19.3906C564.711 20.0469 564.992 20.6406 565.367 21.1719C565.742 21.7031 566.203 22.1328 566.75 22.4609C567.312 22.7891 567.961 22.9531 568.695 22.9531C569.43 22.9531 570.086 22.8125 570.664 22.5312C571.258 22.2344 571.758 21.8438 572.164 21.3594C572.57 20.8594 572.883 20.2891 573.102 19.6484C573.32 19.0078 573.43 18.3438 573.43 17.6562Z" fill="white"/>
</svg>
