<svg width="190" height="36" viewBox="0 0 190 36" fill="none" xmlns="http://www.w3.org/2000/svg">
<path d="M25.2188 23C25.2188 25.1406 24.8438 26.9922 24.0938 28.5547C23.3594 30.1016 22.3438 31.3828 21.0469 32.3984C19.7656 33.3984 18.2578 34.1406 16.5234 34.625C14.8047 35.0938 12.9531 35.3281 10.9688 35.3281C10.2031 35.3281 9.35938 35.2266 8.4375 35.0234C7.53125 34.8203 6.60938 34.5703 5.67188 34.2734C4.73438 33.9609 3.82812 33.6328 2.95312 33.2891C2.09375 32.9297 1.32812 32.5938 0.65625 32.2812L1.6875 23.0938C3.01562 23.8906 4.48438 24.5 6.09375 24.9219C7.71875 25.3281 9.3125 25.5312 10.875 25.5312C11.1719 25.5312 11.5312 25.5234 11.9531 25.5078C12.375 25.4766 12.7734 25.4062 13.1484 25.2969C13.5391 25.1719 13.8672 24.9922 14.1328 24.7578C14.3984 24.5234 14.5312 24.1875 14.5312 23.75C14.5312 23.4531 14.4375 23.2031 14.25 23C14.0625 22.7812 13.8203 22.6094 13.5234 22.4844C13.2266 22.3438 12.8906 22.2422 12.5156 22.1797C12.1406 22.1016 11.7734 22.0469 11.4141 22.0156C11.0547 21.9844 10.7188 21.9688 10.4062 21.9688C10.0938 21.9688 9.84375 21.9688 9.65625 21.9688C8.3125 21.9688 7.08594 21.7578 5.97656 21.3359C4.88281 20.9141 3.9375 20.3203 3.14062 19.5547C2.35938 18.7734 1.75 17.8359 1.3125 16.7422C0.875 15.6328 0.65625 14.4062 0.65625 13.0625C0.65625 11.2188 1.02344 9.57031 1.75781 8.11719C2.50781 6.64844 3.5 5.40625 4.73438 4.39062C5.98438 3.35938 7.41406 2.57031 9.02344 2.02344C10.6328 1.47656 12.2969 1.20312 14.0156 1.20312C14.7812 1.20312 15.5703 1.23437 16.3828 1.29688C17.1953 1.34375 18 1.4375 18.7969 1.57812C19.6094 1.71875 20.3984 1.89844 21.1641 2.11719C21.9297 2.33594 22.6562 2.60938 23.3438 2.9375L22.4531 12.4531C21.3906 12.0938 20.2734 11.7969 19.1016 11.5625C17.9453 11.3125 16.8125 11.1875 15.7031 11.1875C15.5 11.1875 15.2344 11.1953 14.9062 11.2109C14.5938 11.2109 14.2578 11.2344 13.8984 11.2812C13.5547 11.3125 13.2031 11.3672 12.8438 11.4453C12.4844 11.5234 12.1641 11.6328 11.8828 11.7734C11.6016 11.8984 11.375 12.0703 11.2031 12.2891C11.0312 12.5078 10.9531 12.7656 10.9688 13.0625C10.9844 13.4062 11.1094 13.6719 11.3438 13.8594C11.5938 14.0469 11.9062 14.1875 12.2812 14.2812C12.6719 14.3594 13.0938 14.3984 13.5469 14.3984C14.0156 14.3984 14.4766 14.3906 14.9297 14.375C15.3828 14.3438 15.8047 14.3203 16.1953 14.3047C16.5859 14.2734 16.9062 14.2656 17.1562 14.2812C18.4062 14.3594 19.5312 14.625 20.5312 15.0781C21.5312 15.5312 22.375 16.1328 23.0625 16.8828C23.7656 17.6328 24.2969 18.5312 24.6562 19.5781C25.0312 20.6094 25.2188 21.75 25.2188 23ZM55.7109 17.0469C55.7109 18.4688 55.5469 19.8438 55.2188 21.1719C54.8906 22.4844 54.4141 23.7188 53.7891 24.875C53.1797 26.0312 52.4297 27.0938 51.5391 28.0625C50.6641 29.0156 49.6719 29.8359 48.5625 30.5234C47.4688 31.2109 46.2734 31.75 44.9766 32.1406C43.6797 32.5156 42.3047 32.7031 40.8516 32.7031C39.4453 32.7031 38.1016 32.5234 36.8203 32.1641C35.5547 31.8047 34.3672 31.3047 33.2578 30.6641C32.1484 30.0078 31.1406 29.2266 30.2344 28.3203C29.3438 27.3984 28.5781 26.3828 27.9375 25.2734C27.3125 24.1484 26.8203 22.9453 26.4609 21.6641C26.1172 20.3828 25.9453 19.0469 25.9453 17.6562C25.9453 16.2969 26.1094 14.9688 26.4375 13.6719C26.7656 12.3594 27.2344 11.125 27.8438 9.96875C28.4688 8.8125 29.2188 7.75 30.0938 6.78125C30.9688 5.8125 31.9453 4.97656 33.0234 4.27344C34.1172 3.57031 35.2969 3.02344 36.5625 2.63281C37.8281 2.24219 39.1641 2.04688 40.5703 2.04688C42.8359 2.04688 44.8984 2.39844 46.7578 3.10156C48.6328 3.80469 50.2266 4.8125 51.5391 6.125C52.8672 7.42187 53.8906 9 54.6094 10.8594C55.3438 12.7031 55.7109 14.7656 55.7109 17.0469ZM45.3047 17.6562C45.3047 16.9844 45.2031 16.3359 45 15.7109C44.8125 15.0703 44.5312 14.5078 44.1562 14.0234C43.7812 13.5234 43.3125 13.125 42.75 12.8281C42.2031 12.5156 41.5703 12.3594 40.8516 12.3594C40.1172 12.3594 39.4609 12.4922 38.8828 12.7578C38.3047 13.0234 37.8047 13.3906 37.3828 13.8594C36.9766 14.3125 36.6641 14.8516 36.4453 15.4766C36.2266 16.0859 36.1172 16.7344 36.1172 17.4219C36.1172 18.0781 36.2109 18.7344 36.3984 19.3906C36.5859 20.0469 36.8672 20.6406 37.2422 21.1719C37.6172 21.7031 38.0781 22.1328 38.625 22.4609C39.1875 22.7891 39.8359 22.9531 40.5703 22.9531C41.3047 22.9531 41.9609 22.8125 42.5391 22.5312C43.1328 22.2344 43.6328 21.8438 44.0391 21.3594C44.4453 20.8594 44.7578 20.2891 44.9766 19.6484C45.1953 19.0078 45.3047 18.3438 45.3047 17.6562ZM84.6328 26.6562C84.6328 27.9531 84.3906 29.0703 83.9062 30.0078C83.4375 30.9453 82.8047 31.7422 82.0078 32.3984C81.2109 33.0547 80.2891 33.5938 79.2422 34.0156C78.2109 34.4219 77.1328 34.7422 76.0078 34.9766C74.8828 35.2109 73.75 35.3672 72.6094 35.4453C71.4844 35.5234 70.4297 35.5625 69.4453 35.5625C68.4766 35.5625 67.4688 35.5234 66.4219 35.4453C65.3906 35.3828 64.3594 35.2656 63.3281 35.0938C62.2969 34.9219 61.2812 34.6953 60.2812 34.4141C59.2812 34.1172 58.3359 33.75 57.4453 33.3125L57.3984 3.125C58.2734 2.76563 59.2031 2.44531 60.1875 2.16406C61.1719 1.86719 62.1719 1.625 63.1875 1.4375C64.2188 1.23437 65.2422 1.08594 66.2578 0.992188C67.2734 0.882812 68.2578 0.828125 69.2109 0.828125C70.3203 0.828125 71.4375 0.898438 72.5625 1.03906C73.7031 1.17969 74.7969 1.41406 75.8438 1.74219C76.8906 2.07031 77.8672 2.5 78.7734 3.03125C79.6797 3.54688 80.4688 4.1875 81.1406 4.95312C81.8281 5.71875 82.3594 6.60938 82.7344 7.625C83.125 8.64062 83.3203 9.8125 83.3203 11.1406C83.3203 12.0156 83.1953 12.8359 82.9453 13.6016C82.6953 14.3672 82.3359 15.0547 81.8672 15.6641C81.3984 16.2734 80.8281 16.7969 80.1562 17.2344C79.4844 17.6562 78.7266 17.9688 77.8828 18.1719C78.8984 18.4375 79.8203 18.8281 80.6484 19.3438C81.4922 19.8594 82.2031 20.4844 82.7812 21.2188C83.375 21.9531 83.8281 22.7812 84.1406 23.7031C84.4688 24.625 84.6328 25.6094 84.6328 26.6562ZM72.7266 13.2969C72.7266 12.8438 72.6328 12.4609 72.4453 12.1484C72.2578 11.8203 72.0234 11.5547 71.7422 11.3516C71.4766 11.1484 71.1797 11 70.8516 10.9062C70.5391 10.8125 70.2578 10.7656 70.0078 10.7656C69.6953 10.7656 69.3906 10.8125 69.0938 10.9062C68.7969 11 68.5078 11.1094 68.2266 11.2344L68.0859 16.4375C68.4453 16.4375 68.8906 16.4062 69.4219 16.3438C69.9531 16.2812 70.4609 16.1484 70.9453 15.9453C71.4453 15.7266 71.8672 15.4141 72.2109 15.0078C72.5547 14.5859 72.7266 14.0156 72.7266 13.2969ZM69.3984 20.9375C68.9453 20.9375 68.5078 20.9844 68.0859 21.0781L67.9922 26.4219C68.2266 26.4688 68.4531 26.5156 68.6719 26.5625C68.9062 26.5938 69.1328 26.6094 69.3516 26.6094C69.6797 26.6094 70.0391 26.5781 70.4297 26.5156C70.8203 26.4375 71.1875 26.2969 71.5312 26.0938C71.875 25.875 72.1562 25.5859 72.375 25.2266C72.6094 24.8672 72.7266 24.3906 72.7266 23.7969C72.7266 23.2031 72.6094 22.7188 72.375 22.3438C72.1562 21.9688 71.8828 21.6797 71.5547 21.4766C71.2266 21.2578 70.8672 21.1172 70.4766 21.0547C70.0859 20.9766 69.7266 20.9375 69.3984 20.9375ZM113.367 12.4062C113.367 13.625 113.258 14.7344 113.039 15.7344C112.836 16.7188 112.508 17.625 112.055 18.4531C111.602 19.2812 111.016 20.0469 110.297 20.75C109.578 21.4531 108.711 22.125 107.695 22.7656L113.273 32.7031L102.727 34.7656L99.1172 24.7812L96.2109 24.875L95.7891 34.625H85.7109C85.7891 31.0625 85.8594 27.5156 85.9219 23.9844C86 20.4531 86.0859 16.9062 86.1797 13.3438C86.2109 11.5469 86.2422 9.76562 86.2734 8C86.3047 6.23438 86.3672 4.45313 86.4609 2.65625C87.5547 2.25 88.6328 1.91406 89.6953 1.64844C90.7578 1.38281 91.8203 1.17969 92.8828 1.03906C93.9609 0.882812 95.0469 0.78125 96.1406 0.734375C97.25 0.671875 98.3828 0.640625 99.5391 0.640625C101.32 0.640625 103.039 0.890625 104.695 1.39062C106.367 1.875 107.844 2.60938 109.125 3.59375C110.406 4.57812 111.43 5.80469 112.195 7.27344C112.977 8.74219 113.367 10.4531 113.367 12.4062ZM102.867 13.1562C102.867 12.5 102.773 11.8984 102.586 11.3516C102.414 10.8047 102.148 10.3359 101.789 9.94531C101.445 9.53906 101.008 9.22656 100.477 9.00781C99.9609 8.77344 99.3516 8.65625 98.6484 8.65625C98.3359 8.65625 98.0312 8.67969 97.7344 8.72656C97.4375 8.75781 97.1484 8.8125 96.8672 8.89062L96.4922 17.6094H97.0547C97.7266 17.6094 98.4062 17.5234 99.0938 17.3516C99.7969 17.1797 100.422 16.9141 100.969 16.5547C101.531 16.1953 101.984 15.7344 102.328 15.1719C102.688 14.6094 102.867 13.9375 102.867 13.1562ZM127.242 2L125.602 33.9219L115.711 34.4375L114.773 2.65625L127.242 2ZM158.25 23.1406C158.25 24.9062 158.227 26.6562 158.18 28.3906C158.148 30.1094 158.094 31.8438 158.016 33.5938L144.516 33.3594C144.984 30.5938 145.391 27.8359 145.734 25.0859C146.078 22.3203 146.25 19.5312 146.25 16.7188C146.25 16.5156 146.242 16.1875 146.227 15.7344C146.211 15.2812 146.18 14.7734 146.133 14.2109C146.086 13.6328 146.016 13.0469 145.922 12.4531C145.844 11.8438 145.727 11.2891 145.57 10.7891C145.43 10.2891 145.25 9.88281 145.031 9.57031C144.828 9.24219 144.578 9.07812 144.281 9.07812C143.75 9.07812 143.297 9.23438 142.922 9.54688C142.562 9.85937 142.258 10.2656 142.008 10.7656C141.773 11.25 141.586 11.7969 141.445 12.4062C141.305 13.0156 141.195 13.625 141.117 14.2344C141.055 14.8438 141.008 15.4219 140.977 15.9688C140.961 16.5 140.953 16.9375 140.953 17.2812C140.875 20.0469 140.812 22.7969 140.766 25.5312C140.719 28.25 140.656 31 140.578 33.7812L128.625 34.2969C128.938 28.7812 129.234 23.2969 129.516 17.8438C129.812 12.3906 130.047 6.90625 130.219 1.39062L141.281 0.828125L141.188 4.57812C141.625 4.04687 142.094 3.54688 142.594 3.07812C143.109 2.60938 143.656 2.21094 144.234 1.88281C144.812 1.53906 145.422 1.27344 146.062 1.08594C146.719 0.882812 147.406 0.78125 148.125 0.78125C149.453 0.78125 150.617 1 151.617 1.4375C152.617 1.875 153.477 2.46875 154.195 3.21875C154.914 3.96875 155.516 4.85938 156 5.89062C156.484 6.90625 156.875 7.99219 157.172 9.14844C157.469 10.3047 157.695 11.5156 157.852 12.7812C158.008 14.0312 158.109 15.2656 158.156 16.4844C158.219 17.7031 158.25 18.8828 158.25 20.0234C158.25 21.1641 158.25 22.2031 158.25 23.1406ZM189.445 17.0469C189.445 18.4688 189.281 19.8438 188.953 21.1719C188.625 22.4844 188.148 23.7188 187.523 24.875C186.914 26.0312 186.164 27.0938 185.273 28.0625C184.398 29.0156 183.406 29.8359 182.297 30.5234C181.203 31.2109 180.008 31.75 178.711 32.1406C177.414 32.5156 176.039 32.7031 174.586 32.7031C173.18 32.7031 171.836 32.5234 170.555 32.1641C169.289 31.8047 168.102 31.3047 166.992 30.6641C165.883 30.0078 164.875 29.2266 163.969 28.3203C163.078 27.3984 162.312 26.3828 161.672 25.2734C161.047 24.1484 160.555 22.9453 160.195 21.6641C159.852 20.3828 159.68 19.0469 159.68 17.6562C159.68 16.2969 159.844 14.9688 160.172 13.6719C160.5 12.3594 160.969 11.125 161.578 9.96875C162.203 8.8125 162.953 7.75 163.828 6.78125C164.703 5.8125 165.68 4.97656 166.758 4.27344C167.852 3.57031 169.031 3.02344 170.297 2.63281C171.562 2.24219 172.898 2.04688 174.305 2.04688C176.57 2.04688 178.633 2.39844 180.492 3.10156C182.367 3.80469 183.961 4.8125 185.273 6.125C186.602 7.42187 187.625 9 188.344 10.8594C189.078 12.7031 189.445 14.7656 189.445 17.0469ZM179.039 17.6562C179.039 16.9844 178.938 16.3359 178.734 15.7109C178.547 15.0703 178.266 14.5078 177.891 14.0234C177.516 13.5234 177.047 13.125 176.484 12.8281C175.938 12.5156 175.305 12.3594 174.586 12.3594C173.852 12.3594 173.195 12.4922 172.617 12.7578C172.039 13.0234 171.539 13.3906 171.117 13.8594C170.711 14.3125 170.398 14.8516 170.18 15.4766C169.961 16.0859 169.852 16.7344 169.852 17.4219C169.852 18.0781 169.945 18.7344 170.133 19.3906C170.32 20.0469 170.602 20.6406 170.977 21.1719C171.352 21.7031 171.812 22.1328 172.359 22.4609C172.922 22.7891 173.57 22.9531 174.305 22.9531C175.039 22.9531 175.695 22.8125 176.273 22.5312C176.867 22.2344 177.367 21.8438 177.773 21.3594C178.18 20.8594 178.492 20.2891 178.711 19.6484C178.93 19.0078 179.039 18.3438 179.039 17.6562Z" fill="white"/>
</svg>
